# Blender v2.78 (sub 0) OBJ File: ''
# www.blender.org
mtllib Creamer.mtl
o Sphere
v -0.200801 0.526535 0.198498
v -0.371032 0.468125 0.366777
v -0.484777 0.380707 0.479217
v -0.504717 0.277591 0.498929
v -0.484777 0.174474 0.479217
v -0.444429 0.087057 0.439332
v -0.337604 0.028646 0.333733
v -0.282347 0.526535 -0.001628
v -0.521710 0.468125 -0.003009
v -0.681647 0.380707 -0.003931
v -0.709685 0.277591 -0.004093
v -0.681647 0.174474 -0.003931
v -0.624914 0.087057 -0.003604
v -0.474707 0.028646 -0.002738
v -0.198498 0.526535 -0.200801
v -0.366777 0.468125 -0.371032
v -0.479217 0.380707 -0.484777
v -0.498929 0.277591 -0.504718
v -0.479217 0.174474 -0.484777
v -0.439332 0.087057 -0.444429
v -0.333733 0.028646 -0.337604
v 0.000000 0.547046 0.000000
v 0.001629 0.526535 -0.282347
v 0.003009 0.468125 -0.521710
v 0.003931 0.380707 -0.681647
v 0.004093 0.277591 -0.709685
v 0.003931 0.174474 -0.681647
v 0.003604 0.087057 -0.624914
v 0.002738 0.028646 -0.474707
v 0.200801 0.526535 -0.198498
v 0.371032 0.468125 -0.366777
v 0.484777 0.380707 -0.479217
v 0.504718 0.277591 -0.498929
v 0.484777 0.174474 -0.479217
v 0.444429 0.087057 -0.439332
v 0.337605 0.028646 -0.333733
v 0.000000 0.008135 -0.000000
v 0.282348 0.526535 0.001628
v 0.521710 0.468125 0.003009
v 0.681647 0.380707 0.003931
v 0.709685 0.277591 0.004093
v 0.681647 0.174474 0.003931
v 0.624914 0.087057 0.003604
v 0.474707 0.028646 0.002738
v 0.198498 0.526535 0.200801
v 0.366777 0.468125 0.371032
v 0.479217 0.380707 0.484777
v 0.498929 0.277591 0.504718
v 0.479217 0.174474 0.484777
v 0.439332 0.087057 0.444429
v 0.333733 0.028646 0.337605
v -0.001628 0.526535 0.282347
v -0.003009 0.468125 0.521710
v -0.003931 0.380707 0.681647
v -0.004093 0.277591 0.709685
v -0.003931 0.174474 0.681647
v -0.003604 0.087057 0.624914
v -0.002738 0.028646 0.474707
vt 0.5550 0.2316
vt 0.4813 0.2316
vt 0.4813 0.4353
vt 0.5550 0.3863
vt 0.3709 0.2316
vt 0.2407 0.2316
vt 0.2407 0.4629
vt 0.3709 0.4538
vt 0.1105 0.2316
vt 0.0002 0.2316
vt 0.0002 0.4016
vt 0.1105 0.4538
vt 0.8696 0.0002
vt 0.8274 0.1021
vt 0.7278 0.1021
vt 0.6855 0.0002
vt 0.1105 0.4724
vt 0.0002 0.5246
vt 0.0002 0.6947
vt 0.1105 0.6947
vt 0.4813 0.4909
vt 0.3709 0.4724
vt 0.3709 0.6947
vt 0.4813 0.6947
vt 0.2407 0.4633
vt 0.2407 0.6947
vt 0.6573 0.1726
vt 0.5554 0.1304
vt 0.5550 0.5399
vt 0.5550 0.6947
vt 0.3709 0.9169
vt 0.4813 0.8984
vt 0.1105 0.9169
vt 0.2407 0.9260
vt 0.6573 0.2722
vt 0.5554 0.3145
vt 0.5550 0.8494
vt 0.0002 0.8647
vt 0.7278 0.3427
vt 0.6855 0.4446
vt 0.4813 0.6947
vt 0.5550 0.6947
vt 0.2407 0.6947
vt 0.3709 0.6947
vt 0.0002 0.6947
vt 0.1105 0.6947
vt 0.4813 0.4909
vt 0.5550 0.5399
vt 0.2407 0.4633
vt 0.3709 0.4724
vt 0.0002 0.5246
vt 0.1105 0.4724
vt 0.8274 0.3427
vt 0.8696 0.4446
vt 0.4813 0.4353
vt 0.3709 0.4538
vt 0.3709 0.2316
vt 0.4813 0.2316
vt 0.2407 0.4629
vt 0.1105 0.4538
vt 0.1105 0.2316
vt 0.2407 0.2316
vt 0.8979 0.2722
vt 0.9998 0.3145
vt 0.5550 0.3863
vt 0.5550 0.2316
vt 0.0002 0.4016
vt 0.0002 0.2316
vt 0.3709 0.0093
vt 0.4813 0.0278
vt 0.1105 0.0093
vt 0.2407 0.0002
vt 0.8979 0.1726
vt 0.9998 0.1304
vt 0.5550 0.0768
vt 0.0002 0.0615
vt 0.7776 0.2224
vt 0.7576 0.6472
vt 0.9598 0.7310
vt 0.9598 0.5635
vt 0.8413 0.4450
vt 0.6738 0.4450
vt 0.5554 0.5635
vt 0.5554 0.7310
vt 0.6738 0.8494
vt 0.8413 0.8494
vn -0.1734 -0.9698 0.1714
vn -0.4784 -0.7399 0.4729
vn -0.6727 -0.7399 -0.0039
vn -0.2439 -0.9698 -0.0014
vn -0.6534 -0.3948 0.6459
vn -0.7112 -0.0000 0.7030
vn -1.0000 -0.0000 -0.0058
vn -0.9187 -0.3948 -0.0053
vn -0.5811 0.5765 0.5744
vn -0.2766 0.9213 0.2734
vn -0.3889 0.9213 -0.0022
vn -0.8171 0.5765 -0.0047
vn -0.1248 0.9845 0.1234
vn -0.1755 0.9845 -0.0010
vn -0.2734 0.9213 -0.2766
vn -0.5744 0.5765 -0.5811
vn -0.6459 -0.3948 -0.6534
vn -0.4729 -0.7399 -0.4784
vn -0.7030 -0.0000 -0.7112
vn -0.1234 0.9845 -0.1248
vn -0.1714 -0.9698 -0.1734
vn 0.0053 -0.3948 -0.9187
vn 0.0039 -0.7399 -0.6727
vn 0.0047 0.5765 -0.8171
vn 0.0058 0.0000 -1.0000
vn 0.0010 0.9845 -0.1755
vn 0.0022 0.9213 -0.3889
vn 0.0014 -0.9698 -0.2439
vn 0.1248 0.9845 -0.1234
vn 0.2766 0.9213 -0.2734
vn 0.4784 -0.7399 -0.4729
vn 0.1734 -0.9698 -0.1714
vn 0.7112 0.0000 -0.7030
vn 0.6534 -0.3948 -0.6459
vn 0.5811 0.5765 -0.5744
vn 0.6727 -0.7399 0.0039
vn 0.2439 -0.9698 0.0014
vn 1.0000 0.0000 0.0058
vn 0.9187 -0.3948 0.0053
vn 0.3889 0.9213 0.0022
vn 0.8171 0.5765 0.0047
vn 0.1755 0.9845 0.0010
vn 0.6459 -0.3948 0.6534
vn 0.4729 -0.7399 0.4784
vn 0.5744 0.5765 0.5811
vn 0.7030 -0.0000 0.7112
vn 0.1234 0.9845 0.1248
vn 0.2734 0.9213 0.2766
vn 0.1714 -0.9698 0.1734
vn -0.0053 -0.3948 0.9187
vn -0.0039 -0.7399 0.6727
vn -0.0047 0.5765 0.8171
vn -0.0058 -0.0000 1.0000
vn -0.0010 0.9845 0.1755
vn -0.0022 0.9213 0.3889
vn -0.0014 -0.9698 0.2439
vn -0.0000 1.0000 0.0000
vn 0.0000 -1.0000 -0.0000
usemtl Material.001
s 1
f 7/1/1 6/2/2 13/3/3 14/4/4
f 5/5/5 4/6/6 11/7/7 12/8/8
f 3/9/9 2/10/10 9/11/11 10/12/12
f 6/2/2 5/5/5 12/8/8 13/3/3
f 4/6/6 3/9/9 10/12/12 11/7/7
f 2/13/10 1/14/13 8/15/14 9/16/11
f 10/17/12 9/18/11 16/19/15 17/20/16
f 13/21/3 12/22/8 19/23/17 20/24/18
f 11/25/7 10/17/12 17/20/16 18/26/19
f 9/16/11 8/15/14 15/27/20 16/28/15
f 14/29/4 13/21/3 20/24/18 21/30/21
f 12/22/8 11/25/7 18/26/19 19/23/17
f 20/24/18 19/23/17 27/31/22 28/32/23
f 18/26/19 17/20/16 25/33/24 26/34/25
f 16/28/15 15/27/20 23/35/26 24/36/27
f 21/30/21 20/24/18 28/32/23 29/37/28
f 19/23/17 18/26/19 26/34/25 27/31/22
f 17/20/16 16/19/15 24/38/27 25/33/24
f 24/36/27 23/35/26 30/39/29 31/40/30
f 29/37/28 28/32/23 35/41/31 36/42/32
f 27/31/22 26/34/25 33/43/33 34/44/34
f 25/33/24 24/38/27 31/45/30 32/46/35
f 28/32/23 27/31/22 34/44/34 35/41/31
f 26/34/25 25/33/24 32/46/35 33/43/33
f 36/42/32 35/41/31 43/47/36 44/48/37
f 34/44/34 33/43/33 41/49/38 42/50/39
f 32/46/35 31/45/30 39/51/40 40/52/41
f 35/41/31 34/44/34 42/50/39 43/47/36
f 33/43/33 32/46/35 40/52/41 41/49/38
f 31/40/30 30/39/29 38/53/42 39/54/40
f 43/55/36 42/56/39 49/57/43 50/58/44
f 41/59/38 40/60/41 47/61/45 48/62/46
f 39/54/40 38/53/42 45/63/47 46/64/48
f 44/65/37 43/55/36 50/58/44 51/66/49
f 42/56/39 41/59/38 48/62/46 49/57/43
f 40/60/41 39/67/40 46/68/48 47/61/45
f 50/58/44 49/57/43 56/69/50 57/70/51
f 48/62/46 47/61/45 54/71/52 55/72/53
f 46/64/48 45/63/47 52/73/54 53/74/55
f 51/66/49 50/58/44 57/70/51 58/75/56
f 49/57/43 48/62/46 55/72/53 56/69/50
f 47/61/45 46/68/48 53/76/55 54/71/52
f 1/14/13 22/77/57 8/15/14
f 37/78/58 7/79/1 14/80/4
f 8/15/14 22/77/57 15/27/20
f 37/78/58 14/80/4 21/81/21
f 37/78/58 21/81/21 29/82/28
f 15/27/20 22/77/57 23/35/26
f 23/35/26 22/77/57 30/39/29
f 37/78/58 29/82/28 36/83/32
f 30/39/29 22/77/57 38/53/42
f 37/78/58 36/83/32 44/84/37
f 38/53/42 22/77/57 45/63/47
f 37/78/58 44/84/37 51/85/49
f 45/63/47 22/77/57 52/73/54
f 37/78/58 51/85/49 58/86/56
f 58/75/56 57/70/51 6/2/2 7/1/1
f 56/69/50 55/72/53 4/6/6 5/5/5
f 54/71/52 53/76/55 2/10/10 3/9/9
f 52/73/54 22/77/57 1/14/13
f 37/78/58 58/86/56 7/79/1
f 57/70/51 56/69/50 5/5/5 6/2/2
f 55/72/53 54/71/52 3/9/9 4/6/6
f 53/74/55 52/73/54 1/14/13 2/13/10
